# AST/ASF file generated using VICON BodyLanguage
# -----------------------------------------------
:version 1.10
:name VICON
:units
  mass 1.0
  length 0.45
  angle deg
:documentation
   .ast/.asf automatically generated from VICON data using
   VICON BodyBuilder and BodyLanguage model FoxedUp or BRILLIANT.MOD
:root
   order TX TY TZ RX RY RZ
   axis XYZ
   position 0 0 0  
   orientation 0 0 0 
:bonedata
  begin
     id 1 
     name lhipjoint
     direction 0.623529 -0.717805 0.309788 
     length 2.23224 
     axis 0 0 0  XYZ
  end
  begin
     id 2 
     name lfemur
     direction 0.34202 -0.939693 0  
     length 7.11402  
     axis 0 0 20  XYZ
    dof rx ry rz
    limits (-160.0 20.0)
           (-70.0 70.0)
           (-60.0 70.0)
  end
  begin
     id 3 
     name ltibia
     direction 0.34202 -0.939693 0   
     length 6.78496   
     axis 0 0 20   XYZ
    dof rx
    limits (-10.0 170.0)
  end
  begin
     id 4 
     name lfoot
     direction 0.125078 -0.343648 0.930732   
     length 1.84054   
     axis -90 7.62852e-016 20   XYZ
    dof rx rz
    limits (-45.0 90.0)
           (-70.0 20.0)
  end
  begin
     id 5 
     name ltoes
     direction 1.53565e-011 -4.21893e-011 1   
     length 0.916474   
     axis -90 7.62852e-016 20   XYZ
    dof rx
    limits (-90.0 20.0)
  end
  begin
     id 6 
     name rhipjoint
     direction -0.564688 -0.757748 0.327026   
     length 2.11457  
     axis 0 0 0  XYZ 
  end
  begin
     id 7 
     name rfemur
     direction -0.34202 -0.939693 0   
     length 7.14609   
     axis 0 0 -20   XYZ
    dof rx ry rz
    limits (-160.0 20.0)
           (-70.0 70.0)
           (-70.0 60.0)
  end
  begin
     id 8 
     name rtibia
     direction -0.34202 -0.939693 0   
     length 6.78101   
     axis 0 0 -20   XYZ
    dof rx
    limits (-10.0 170.0)
 end
 begin
     id 9 
     name rfoot
     direction -0.0992671 -0.272734 0.956955   
     length 1.96168  
     axis -90 -7.62852e-016 -20   XYZ
    dof rx rz
    limits (-45.0 90.0)
           (-20.0 70.0)
  end
  begin
     id 10 
     name rtoes
     direction -1.5356e-011 -4.21891e-011 1   
     length 0.982933   
     axis -90 -7.62852e-016 -20   XYZ
    dof rx
    limits (-90.0 20.0)
  end
  begin
     id 11 
     name lowerback
     direction -0.00596953 0.998668 0.0512524   
     length 1.87557   
     axis 0 0 0   XYZ
    dof rx ry rz
    limits (-20.0 45.0)
           (-30.0 30.0)
           (-30.0 30.0)
  end
  begin
     id 12 
     name upperback
     direction 0.00584879 0.999652 0.0257308   
     length 1.87883   
     axis 0 0 0   XYZ
    dof rx ry rz
    limits (-20.0 45.0)
           (-30.0 30.0)
           (-30.0 30.0)
  end
  begin
     id 13 
     name thorax
     direction 0.010104 0.999947 0.00178881   
     length 1.87779   
     axis 0 0 0   XYZ
    dof rx ry rz
    limits (-20.0 45.0)
           (-30.0 30.0)
           (-30.0 30.0)
  end
  begin
     id 14 
     name lowerneck
     direction 0.0120771 0.995934 -0.0892773   
     length 1.40897   
     axis 0 0 0   XYZ
    dof rx ry rz
    limits (-20.0 45.0)
           (-30.0 30.0)
           (-30.0 30.0)
  end
  begin
     id 15 
     name upperneck
     direction -0.030568 0.999465 -0.0116366   
     length 1.38661   
     axis 0 0 0   XYZ
    dof rx ry rz
    limits (-20.0 45.0)
           (-30.0 30.0)
           (-30.0 30.0)
  end
  begin
     id 16
     name head
     direction -0.0170715 0.999854 -0.00104426  
     length 1.47052  
     axis 0 0 0   XYZ
    dof rx ry rz
    limits (-20.0 45.0)
           (-30.0 30.0)
           (-30.0 30.0)
  end
  begin
     id 17 
     name lclavicle
     direction 0.977763 0.206143 0.038532  
     length 3.02424  
     axis 0 0 0   XYZ
    dof ry rz
    limits (-20.0 10.0)
           (0.0 20.0)
  end
  begin
     id 18 
     name lhumerus
     direction 1 -4.48965e-011 -2.62654e-027   
     length 4.68382   
     axis 180 -30 -90   XYZ
    dof rx ry rz
    limits (-60.0 90.0)
           (-90.0 90.0)
           (-90.0 90.0)
  end
  begin
     id 19
     name lradius
     direction 1 -4.48973e-011 -1.54954e-027   
     length 2.98124   
     axis 180 -30 -90   XYZ
    dof rx
    limits (-10.0 170.0)
  end
  begin
     id 20
     name lwrist
     direction 1 -4.48959e-011 7.20928e-028   
     length 1.49062   
     axis -5.52449e-016 90 90   XYZ
    dof ry
    limits (-180.0 0.0)
 end
  begin
     id 21 
     name lhand
     direction 1 -4.48971e-011 1.44186e-027   
     length 0.707595   
     axis -9.20027e-016 90 90   XYZ
    dof rx rz
    limits (-90.0 90.0)
           (-45.0 45.0)
  end
  begin
     id 22 
     name lfingers
     direction 1 -4.48985e-011 2.88371e-027   
     length 0.570481   
     axis -1.84005e-015 90 90   XYZ
    dof rx
    limits (0.0 90.0)
  end
  begin
     id 23
     name lthumb
     direction 0.707107 -6.34929e-011 0.707107   
     length 0.819101   
     axis -90 45 2.85299e-015   XYZ
    dof rx rz
    limits (-45.0 45.0)
           (-45.0 45.0)
  end
  begin
     id 24 
     name rclavicle
     direction -0.958661 0.284411 -0.00895327   
     length 3.11921  
     axis 0 0 0   XYZ 
    dof ry rz
    limits (-10.0 20.0)
           (-20.0 0.0)
  end
  begin
     id 25 
     name rhumerus
     direction -1 -4.48963e-011 -4.22193e-027  
     length 4.75876   
     axis 180 30 90   XYZ
    dof rx ry rz
    limits (-90.0 60.0)
           (-90.0 90.0)
           (-90.0 90.0)
  end
  begin
     id 26 
     name rradius
     direction -1 -4.48968e-011 -1.07616e-027   
     length 2.93293   
     axis 180 30 90   XYZ
    dof rx
    limits (-10.0 170.0)
  end
  begin
     id 27 
     name rwrist
     direction -1 -4.48965e-011 7.20928e-028   
     length 1.46647   
     axis -5.52449e-016 -90 -90   XYZ
    dof ry
    limits (-180.0 0.0)
  end
  begin
     id 28
     name rhand
     direction -1 -4.48971e-011 1.44186e-027   
     length 0.831748   
     axis -9.20027e-016 -90 -90   XYZ
    dof rx rz
    limits (-90.0 90.0)
           (-45.0 45.0)
  end
  begin
     id 29
     name rfingers
     direction -1 -4.48961e-011 2.88371e-027   
     length 0.670577   
     axis -1.84005e-015 -90 -90   XYZ
    dof rx
    limits (0.0 90.0)
  end
  begin
     id 30
     name rthumb
     direction -0.707107 -6.34929e-011 0.707107   
     length 0.962818   
     axis -90 -45 -2.85299e-015   XYZ
    dof rx rz
    limits (-45.0 45.0)
           (-45.0 45.0)
  end
:hierarchy
  begin
    root lhipjoint rhipjoint lowerback
    lhipjoint lfemur
    lfemur ltibia
    ltibia lfoot
    lfoot ltoes
    rhipjoint rfemur
    rfemur rtibia
    rtibia rfoot
    rfoot rtoes
    lowerback upperback
    upperback thorax
    thorax lowerneck lclavicle rclavicle
    lowerneck upperneck
    upperneck head
    lclavicle lhumerus
    lhumerus lradius
    lradius lwrist
    lwrist lhand lthumb
    lhand lfingers
    rclavicle rhumerus
    rhumerus rradius
    rradius rwrist
    rwrist rhand rthumb
    rhand rfingers
  end

#!OML:ASF E:\id_vita\Project 1\Capture day 1\Session 1\Female.ASF
:FULLY-SPECIFIED
:DEGREES
719
root 7.0681 27.9991 0.845847 703.788 99.8299 673.827
lowerback -12.4101 -3.44074 -7.92914
upperback -3.76208 -3.36907 -0.669626
thorax 3.39934 -1.60815 3.23919
lowerneck 2.64655 0.736732 -4.45511
upperneck -18.0439 1.94776 5.33577
head -5.96175 1.04936 2.3013
rclavicle 1.33807e-014 1.64494e-014
rhumerus 70.3892 -4.28884 -27.4351
rradius 30.3885
rwrist 7.83866
rhand -1.88999 7.65859
rfingers 7.12502
rthumb 23.7789 -20.89
lclavicle 1.33807e-014 1.64494e-014
lhumerus 74.9338 -0.579286 21.9016
lradius 28.1441
lwrist -18.945
lhand -16.0444 28.2533
lfingers 7.12502
lthumb 10.1573 57.9882
rfemur -30.3413 26.9921 3.9456
rtibia 11.582
rfoot 12.4065 -35.815
rtoes -10.3438
lfemur -37.8286 -3.06106 -22.3431
ltibia 28.1654
lfoot -4.47418 -19.1211
ltoes -0.806968
720
root 7.06735 28.0087 0.849547 703.653 99.864 673.583
lowerback -12.462 -3.39738 -7.93437
upperback -3.76348 -3.30454 -0.680649
thorax 3.41835 -1.57631 3.23909
lowerneck 2.47565 0.182014 -5.79406
upperneck -17.7232 1.27956 6.71659
head -5.80255 0.715182 3.0053
rclavicle 2.22887e-014 -1.83876e-015
rhumerus 70.3124 -4.40087 -27.5903
rradius 30.2036
rwrist 8.04323
rhand -2.34137 7.66503
rfingers 7.12502
rthumb 23.3459 -20.9392
lclavicle 2.22887e-014 -1.83876e-015
lhumerus 75.172 -0.497385 22.7204
lradius 27.9406
lwrist -18.9418
lhand -16.056 27.2531
lfingers 7.12502
lthumb 10.1461 56.9885
rfemur -30.4562 26.9109 3.8578
rtibia 11.5707
rfoot 12.2214 -35.8728
rtoes -9.77077
lfemur -37.9924 -3.10638 -22.4018
ltibia 28.1631
lfoot -4.25021 -19.1842
ltoes -1.15113
721
root 7.06874 28.0183 0.854367 702.798 99.9005 672.561
lowerback -12.5997 -3.38755 -8.05653
upperback -3.79853 -3.25652 -0.73667
thorax 3.45381 -1.5505 3.25138
lowerneck 2.59398 0.0755534 -6.05963
upperneck -18.0923 1.1798 6.98552
head -5.93252 0.669155 3.14672
rclavicle 1.29583e-014 1.26725e-014
rhumerus 70.4342 -4.44995 -27.8011
rradius 29.8873
rwrist 8.04783
rhand -2.3489 7.74384
rfingers 7.12502
rthumb 23.3387 -20.8613
lclavicle 1.29583e-014 1.26725e-014
lhumerus 74.8965 -0.574321 21.9389
lradius 28.3976
lwrist -18.0174
lhand -16.6441 28.5808
lfingers 7.12502
lthumb 9.57872 58.343
rfemur -30.6795 26.8307 3.598
rtibia 11.5975
rfoot 12.1486 -35.8933
rtoes -9.37384
lfemur -38.1647 -3.22669 -22.5547
ltibia 28.1432
lfoot -3.99649 -19.0554
ltoes -1.25502
722
root 7.06685 28.0258 0.856418 702.594 99.9037 672.236
lowerback -12.5862 -3.38677 -8.00084
upperback -3.75557 -3.26249 -0.766202
thorax 3.48813 -1.55649 3.1876
lowerneck 2.40354 0.50789 -5.06789
upperneck -18.1534 1.72683 6.0402
head -5.94841 0.943113 2.64406
rclavicle -1.48592e-014 -1.61016e-014
rhumerus 70.6721 -4.57436 -28.21
rradius 29.7246
rwrist 8.75087
rhand -2.97635 7.8335
rfingers 7.12502
rthumb 22.7367 -20.8468
lclavicle -1.48592e-014 -1.61016e-014
lhumerus 74.6257 -0.402149 21.4236
lradius 28.7694
lwrist -17.2219
lhand -16.8497 28.8077
lfingers 7.12502
lthumb 9.38033 58.5789
rfemur -30.901 26.7615 3.48464
rtibia 11.6806
rfoot 12.5131 -35.7895
rtoes -9.65763
lfemur -38.2792 -3.57306 -22.4684
ltibia 28.1151
lfoot -3.76985 -18.6926
ltoes -1.3779
723
root 7.06257 28.0297 0.861038 703.194 99.8984 672.792
lowerback -12.5092 -3.38951 -7.84336
upperback -3.88826 -3.29499 -0.772093
thorax 3.30155 -1.56068 3.09546
lowerneck 2.7009 0.540333 -5.06409
upperneck -18.1672 1.77687 6.18204
head -6.00783 0.949345 2.68553
rclavicle 1.22377e-014 7.50412e-015
rhumerus 70.5779 -4.37989 -28.366
rradius 29.7128
rwrist 8.7027
rhand -3.29069 7.7615
rfingers 7.12502
rthumb 22.435 -20.9555
lclavicle 1.22377e-014 7.50412e-015
lhumerus 74.6451 -0.590725 21.5905
lradius 28.5685
lwrist -17.1982
lhand -16.7843 28.6585
lfingers 7.12502
lthumb 9.4435 58.4269
rfemur -31.0049 26.7076 3.58554
rtibia 11.7591
rfoot 12.5694 -35.8405
rtoes -9.46927
lfemur -38.3585 -3.88803 -22.2324
ltibia 28.0957
lfoot -3.56779 -18.4706
ltoes -1.14385
